<svg xmlns="http://www.w3.org/2000/svg" version="1.1" xmlns:xlink="http://www.w3.org/1999/xlink" xmlns:svgjs="http://svgjs.dev/svgjs" width="1500" height="1500" viewBox="0 0 1500 1500"><rect width="1500" height="1500" fill="#ffffff"></rect><g transform="matrix(0.6666666666666666,0,0,0.6666666666666666,249.39393939393938,438.58569500674764)"><svg viewBox="0 0 396 247" data-background-color="#f3e9dc" preserveAspectRatio="xMidYMid meet" height="935" width="1500" xmlns="http://www.w3.org/2000/svg" xmlns:xlink="http://www.w3.org/1999/xlink"><g id="tight-bounds" transform="matrix(1,0,0,1,0.2400000000000091,-0.09999999999999432)"><svg viewBox="0 0 395.52 247.2" height="247.2" width="395.52"><g><svg></svg></g><g><svg viewBox="0 0 395.52 247.2" height="247.2" width="395.52"><g transform="matrix(1,0,0,1,75.54432,52.517810810734645)"><svg viewBox="0 0 244.43135999999998 142.1643783785307" height="142.1643783785307" width="244.43135999999998"><g><svg viewBox="0 0 244.43135999999998 142.1643783785307" height="142.1643783785307" width="244.43135999999998"><g transform="matrix(1,0,0,1,0,85.98271411606764)"><svg viewBox="0 0 244.43135999999998 56.18166426246306" height="56.18166426246306" width="244.43135999999998"><g id="textblocktransform"><svg viewBox="0 0 244.43135999999998 56.18166426246306" height="56.18166426246306" width="244.43135999999998" id="textblock"><g><svg viewBox="0 0 244.43135999999998 35.326141180567646" height="35.326141180567646" width="244.43135999999998"><g transform="matrix(1,0,0,1,0,0)"><svg width="244.43135999999998" viewBox="3.05 -40.95 287.12 41.5" height="35.326141180567646" data-palette-color="#a31621"><path d="M20.25 0L3.05 0 3.05-40.5 10.45-40.5 10.45-5.1 20.25-5.1 20.25 0ZM31.4 0L24.1 0 24.1-40.5 31.4-40.5 31.4 0ZM45.05 0L37.64 0 37.64-40.5 54.3-40.5 54.3-35.4 45.05-35.4 45.05-23.6 52.59-23.6 52.59-18.45 45.05-18.45 45.05 0ZM75.24 0L58.14 0 58.14-40.5 75.14-40.5 75.14-35.3 65.54-35.3 65.54-23.65 73.09-23.65 73.09-18.5 65.54-18.5 65.54-5.1 75.24-5.1 75.24 0ZM101.84 0.55L101.84 0.55Q97.84 0.55 95.49-1.15 93.14-2.85 92.11-5.98 91.09-9.1 91.09-13.35L91.09-13.35 91.09-26.95Q91.09-31.3 92.09-34.45 93.09-37.6 95.61-39.28 98.14-40.95 102.59-40.95L102.59-40.95Q106.74-40.95 109.19-39.55 111.64-38.15 112.71-35.52 113.79-32.9 113.79-29.15L113.79-29.15 113.79-27.05 106.74-27.05 106.74-29.35Q106.74-31.3 106.46-32.7 106.19-34.1 105.36-34.83 104.54-35.55 102.69-35.55L102.69-35.55Q100.74-35.55 99.86-34.6 98.99-33.65 98.76-32.1 98.54-30.55 98.54-28.7L98.54-28.7 98.54-11.75Q98.54-9.65 98.89-8.1 99.24-6.55 100.19-5.73 101.14-4.9 102.89-4.9L102.89-4.9Q104.69-4.9 105.64-5.8 106.59-6.7 106.96-8.3 107.34-9.9 107.34-12.1L107.34-12.1 107.34-15.9 102.99-15.9 102.99-20.55 113.99-20.55 113.99 0 109.24 0 108.69-4Q107.89-2 106.26-0.73 104.64 0.55 101.84 0.55ZM130.74 0.55L130.74 0.55Q126.24 0.55 123.74-1.1 121.24-2.75 120.29-5.8 119.34-8.85 119.34-13.1L119.34-13.1 119.34-40.5 126.54-40.5 126.54-12.25Q126.54-10.35 126.79-8.68 127.04-7 127.96-5.98 128.89-4.95 130.74-4.95L130.74-4.95Q132.69-4.95 133.56-5.98 134.44-7 134.71-8.68 134.99-10.35 134.99-12.25L134.99-12.25 134.99-40.5 142.14-40.5 142.14-13.1Q142.14-8.85 141.19-5.8 140.24-2.75 137.76-1.1 135.29 0.55 130.74 0.55ZM152.63 0L145.68 0 153.78-40.5 161.68-40.5 169.78 0 162.93 0 161.33-9.35 154.28-9.35 152.63 0ZM157.78-31.05L155.03-14.05 160.53-14.05 157.78-31.05ZM181.03 0L173.63 0 173.63-40.5 183.33-40.5Q187.43-40.5 190.26-39.53 193.08-38.55 194.56-36.2 196.03-33.85 196.03-29.8L196.03-29.8Q196.03-27.35 195.58-25.4 195.13-23.45 194.06-22.08 192.98-20.7 191.08-19.95L191.08-19.95 196.73 0 189.33 0 184.43-18.55 181.03-18.55 181.03 0ZM181.03-35.45L181.03-23.2 183.33-23.2Q185.48-23.2 186.76-23.83 188.03-24.45 188.58-25.83 189.13-27.2 189.13-29.35L189.13-29.35Q189.13-32.4 188.01-33.93 186.88-35.45 183.73-35.45L183.73-35.45 181.03-35.45ZM211.43 0L201.58 0 201.58-40.5 211.13-40.5Q216.08-40.5 218.85-39.15 221.63-37.8 222.8-35 223.98-32.2 223.98-27.9L223.98-27.9 223.98-13.1Q223.98-8.7 222.8-5.78 221.63-2.85 218.9-1.43 216.18 0 211.43 0L211.43 0ZM208.98-35.25L208.98-5.15 211.23-5.15Q213.78-5.15 214.88-6.05 215.98-6.95 216.23-8.68 216.48-10.4 216.48-12.9L216.48-12.9 216.48-28.4Q216.48-30.85 216.13-32.35 215.78-33.85 214.68-34.55 213.58-35.25 211.13-35.25L211.13-35.25 208.98-35.25ZM236.93 0L229.63 0 229.63-40.5 236.93-40.5 236.93 0ZM248.07 0L241.12 0 249.22-40.5 257.12-40.5 265.22 0 258.37 0 256.77-9.35 249.72-9.35 248.07 0ZM253.22-31.05L250.47-14.05 255.97-14.05 253.22-31.05ZM275.37 0L269.07 0 269.07-40.5 274.22-40.5 284.07-17.4 284.07-40.5 290.17-40.5 290.17 0 285.27 0 275.37-24.2 275.37 0Z" opacity="1" transform="matrix(1,0,0,1,0,0)" fill="#000000" class="wordmark-text-0" data-fill-palette-color="primary" id="text-0"></path></svg></g></svg></g><g transform="matrix(1,0,0,1,46.68638976,43.66579528591133)"><svg viewBox="0 0 151.05858048 12.515868976551724" height="12.515868976551724" width="151.05858048"><g transform="matrix(1,0,0,1,0,0)"><svg width="151.05858048" viewBox="0.5 -34.3 417.56 34.599999999999994" height="12.515868976551724" data-palette-color="#f49901"><path d="M0.5-33.85L24.1-33.85 23.35-29.35 14.95-29.35 14.95 0 9.05 0 9.05-29.35 0.5-29.35 0.5-33.85ZM40.2-34.3Q43.95-34.3 46.6-33.1 49.25-31.9 50.97-29.7 52.7-27.5 53.5-24.33 54.3-21.15 54.3-17.2L54.3-17.2Q54.3-13.3 53.42-10.08 52.55-6.85 50.72-4.55 48.9-2.25 46.12-0.98 43.35 0.3 39.55 0.3L39.55 0.3Q35.8 0.3 33.12-0.83 30.45-1.95 28.72-4.13 27-6.3 26.2-9.4 25.4-12.5 25.4-16.5L25.4-16.5Q25.4-20.4 26.27-23.68 27.15-26.95 28.97-29.33 30.8-31.7 33.6-33 36.4-34.3 40.2-34.3L40.2-34.3ZM39.5-29.7Q37.3-29.7 35.85-28.73 34.4-27.75 33.5-26.05 32.6-24.35 32.22-22.05 31.85-19.75 31.85-17.05L31.85-17.05Q31.85-14.5 32.2-12.2 32.55-9.9 33.47-8.15 34.4-6.4 36.02-5.35 37.65-4.3 40.25-4.3L40.25-4.3Q42.4-4.3 43.87-5.25 45.35-6.2 46.25-7.85 47.15-9.5 47.52-11.78 47.9-14.05 47.9-16.7L47.9-16.7Q47.9-19.25 47.55-21.6 47.2-23.95 46.27-25.75 45.35-27.55 43.72-28.63 42.1-29.7 39.5-29.7L39.5-29.7ZM72.79 0L72.79-33.85 78.74-33.85 78.74-4.5 91.39-4.5 91.39 0 72.79 0ZM105.94-34.3Q109.69-34.3 112.34-33.1 114.99-31.9 116.72-29.7 118.44-27.5 119.24-24.33 120.04-21.15 120.04-17.2L120.04-17.2Q120.04-13.3 119.17-10.08 118.29-6.85 116.47-4.55 114.64-2.25 111.87-0.98 109.09 0.3 105.29 0.3L105.29 0.3Q101.54 0.3 98.87-0.83 96.19-1.95 94.47-4.13 92.74-6.3 91.94-9.4 91.14-12.5 91.14-16.5L91.14-16.5Q91.14-20.4 92.02-23.68 92.89-26.95 94.72-29.33 96.54-31.7 99.34-33 102.14-34.3 105.94-34.3L105.94-34.3ZM105.24-29.7Q103.04-29.7 101.59-28.73 100.14-27.75 99.24-26.05 98.34-24.35 97.97-22.05 97.59-19.75 97.59-17.05L97.59-17.05Q97.59-14.5 97.94-12.2 98.29-9.9 99.22-8.15 100.14-6.4 101.77-5.35 103.39-4.3 105.99-4.3L105.99-4.3Q108.14-4.3 109.62-5.25 111.09-6.2 111.99-7.85 112.89-9.5 113.27-11.78 113.64-14.05 113.64-16.7L113.64-16.7Q113.64-19.25 113.29-21.6 112.94-23.95 112.02-25.75 111.09-27.55 109.47-28.63 107.84-29.7 105.24-29.7L105.24-29.7ZM150.34-33.85L137.69 0 133.04 0 120.39-33.85 126.74-33.85 130.94-21.75Q132.54-17.05 133.69-13.48 134.84-9.9 135.44-8L135.44-8Q135.99-9.9 137.11-13.38 138.24-16.85 139.94-21.65L139.94-21.65 144.29-33.85 150.34-33.85ZM153.39 0L153.39-33.85 173.49-33.85 173.49-29.35 159.34-29.35 159.34-19.9 170.99-19.9 170.24-15.35 159.34-15.35 159.34-4.5 174.24-4.5 174.24 0 153.39 0ZM191.78 0L191.78-33.85 197.73-33.85 197.73 0 191.78 0ZM214.48-34.3L214.48-34.3Q216.23-34.3 217.83-33.98 219.43-33.65 220.75-33.23 222.08-32.8 223-32.35 223.93-31.9 224.28-31.65L224.28-31.65 221.83-27.35 221.18-27.7Q220.53-28.05 219.48-28.5 218.43-28.95 217.18-29.3 215.93-29.65 214.78-29.65L214.78-29.65Q212.98-29.65 211.65-28.8 210.33-27.95 210.33-26.15L210.33-26.15Q210.33-23.9 211.78-22.48 213.23-21.05 216.33-19.85L216.33-19.85Q218.33-19.05 219.9-18.18 221.48-17.3 222.58-16.15 223.68-15 224.25-13.5 224.83-12 224.83-9.9L224.83-9.9Q224.83-8 224.1-6.15 223.38-4.3 221.95-2.88 220.53-1.45 218.43-0.58 216.33 0.3 213.58 0.3L213.58 0.3Q211.63 0.3 209.88-0.1 208.13-0.5 206.7-1.03 205.28-1.55 204.25-2.1 203.23-2.65 202.73-2.95L202.73-2.95 204.83-7.55 205.73-7.05Q206.63-6.55 207.93-5.95 209.23-5.35 210.68-4.85 212.13-4.35 213.18-4.35L213.18-4.35Q215.83-4.35 217.13-5.65 218.43-6.95 218.43-9.3L218.43-9.3Q218.43-10.4 218.08-11.23 217.73-12.05 217.08-12.65 216.43-13.25 215.5-13.73 214.58-14.2 213.43-14.65L213.43-14.65Q211.18-15.6 209.4-16.55 207.63-17.5 206.38-18.73 205.13-19.95 204.48-21.53 203.83-23.1 203.83-25.3L203.83-25.3Q203.83-27.15 204.63-28.78 205.43-30.4 206.83-31.63 208.23-32.85 210.18-33.58 212.13-34.3 214.48-34.3ZM239.82-33.85L263.42-33.85 262.67-29.35 254.27-29.35 254.27 0 248.37 0 248.37-29.35 239.82-29.35 239.82-33.85ZM279.52-34.3Q283.27-34.3 285.92-33.1 288.57-31.9 290.3-29.7 292.02-27.5 292.82-24.33 293.62-21.15 293.62-17.2L293.62-17.2Q293.62-13.3 292.75-10.08 291.87-6.85 290.05-4.55 288.22-2.25 285.45-0.98 282.67 0.3 278.87 0.3L278.87 0.3Q275.12 0.3 272.45-0.83 269.77-1.95 268.05-4.13 266.32-6.3 265.52-9.4 264.72-12.5 264.72-16.5L264.72-16.5Q264.72-20.4 265.6-23.68 266.47-26.95 268.3-29.33 270.12-31.7 272.92-33 275.72-34.3 279.52-34.3L279.52-34.3ZM278.82-29.7Q276.62-29.7 275.17-28.73 273.72-27.75 272.82-26.05 271.92-24.35 271.55-22.05 271.17-19.75 271.17-17.05L271.17-17.05Q271.17-14.5 271.52-12.2 271.87-9.9 272.8-8.15 273.72-6.4 275.35-5.35 276.97-4.3 279.57-4.3L279.57-4.3Q281.72-4.3 283.2-5.25 284.67-6.2 285.57-7.85 286.47-9.5 286.85-11.78 287.22-14.05 287.22-16.7L287.22-16.7Q287.22-19.25 286.87-21.6 286.52-23.95 285.6-25.75 284.67-27.55 283.05-28.63 281.42-29.7 278.82-29.7L278.82-29.7ZM333.76-30.7L330.72-27.05Q329.51-28.35 328.19-29.03 326.87-29.7 325.12-29.7L325.12-29.7Q322.97-29.7 321.49-28.73 320.01-27.75 319.12-26.03 318.22-24.3 317.81-22 317.42-19.7 317.42-17.05L317.42-17.05Q317.42-14.4 317.79-12.1 318.17-9.8 319.09-8.05 320.01-6.3 321.59-5.3 323.17-4.3 325.56-4.3L325.56-4.3Q326.72-4.3 327.76-4.5 328.81-4.7 329.69-4.93 330.56-5.15 331.14-5.35 331.72-5.55 331.87-5.6L331.87-5.6 333.26-1.4 332.62-1.15Q331.97-0.9 330.79-0.58 329.62-0.25 327.99 0.03 326.37 0.3 324.42 0.3L324.42 0.3Q317.72 0.3 314.34-3.98 310.97-8.25 310.97-16.5L310.97-16.5Q310.97-20.45 311.87-23.73 312.76-27 314.59-29.35 316.42-31.7 319.19-33 321.97-34.3 325.72-34.3L325.72-34.3Q328.72-34.3 330.64-33.2 332.56-32.1 333.76-30.7L333.76-30.7ZM334.51 0L347.51-33.85 352.21-33.85 365.26 0 358.91 0 355.81-8.85 343.61-8.85 340.41 0 334.51 0ZM345.21-13.25L354.26-13.25Q352.66-17.75 351.51-21.43 350.36-25.1 349.76-27.2L349.76-27.2Q349.06-24.95 347.91-21.3 346.76-17.65 345.21-13.25L345.21-13.25ZM368.51 0L368.51-33.85Q368.86-33.85 370.11-33.88 371.36-33.9 372.91-33.9 374.46-33.9 376.01-33.93 377.56-33.95 378.56-33.95L378.56-33.95Q384.76-33.95 387.61-31.53 390.46-29.1 390.46-24.7L390.46-24.7Q390.46-21.8 389.01-19.55 387.56-17.3 384.26-16.3L384.26-16.3Q385.66-15.5 386.76-14.1 387.86-12.7 388.91-10.68 389.96-8.65 391.06-5.98 392.16-3.3 393.61 0L393.61 0 387.16 0Q385.46-3.95 384.19-6.75 382.91-9.55 381.71-11.3 380.51-13.05 379.13-13.85 377.76-14.65 375.91-14.65L375.91-14.65 374.46-14.65 374.46 0 368.51 0ZM374.46-29.7L374.46-19 378.31-19Q381.11-19 382.63-20.25 384.16-21.5 384.16-23.95L384.16-23.95Q384.16-25.05 383.86-26.1 383.56-27.15 382.83-27.95 382.11-28.75 380.88-29.23 379.66-29.7 377.81-29.7L377.81-29.7 374.46-29.7ZM397.21 0L397.21-33.85 417.31-33.85 417.31-29.35 403.16-29.35 403.16-19.9 414.81-19.9 414.06-15.35 403.16-15.35 403.16-4.5 418.06-4.5 418.06 0 397.21 0Z" opacity="1" transform="matrix(1,0,0,1,0,0)" fill="#000000" class="slogan-text-1" data-fill-palette-color="secondary" id="text-1"></path></svg></g></svg></g></svg></g></svg></g><g transform="matrix(1,0,0,1,88.01701750208288,0)"><svg viewBox="0 0 68.39732499583423 77.64306001072396" height="77.64306001072396" width="68.39732499583423"><g><svg xmlns="http://www.w3.org/2000/svg" xmlns:xlink="http://www.w3.org/1999/xlink" version="1.1" x="8.000000000000004" y="0" viewBox="5.204170427930421e-18 0 61.254 90.76700000000001" enable-background="new 0 0 61.254 90.766" xml:space="preserve" width="52.39732499583422" height="77.64306001072396" class="icon-icon-0" data-fill-palette-color="accent" id="icon-0"><path fill="#000000" d="M51.577 52.921c5.943-5.585 9.676-13.497 9.677-22.294C61.251 13.707 47.539 0 30.628 0 14.476 0 1.278 12.503 0.114 28.358c-0.061 0.709-0.103 1.424-0.108 2.146 0 0.041-0.006 0.08-0.006 0.122 0 0.993 0.056 1.972 0.149 2.941 0.761 7.93 4.554 14.966 10.198 19.967-0.185 0.268-0.38 0.526-0.552 0.805-3.897 6.25-4.89 14.282-4.91 22.873 0.135 1.776 1.098 2.228 1.427 2.501 0.735 0.458 1.247 0.593 1.852 0.799 0.708 0.223 1.461 0.42 2.066 0.6 0.521 3.934 2.764 6.937 5.876 8.181 3.4 1.439 7.266 1.448 11.601 1.474 1.062 0 2.157-0.003 3.283-0.003 5.148-0.022 9.746 0.062 13.682-1.223 1.957-0.65 3.804-1.742 5.138-3.471 1.064-1.371 1.734-3.051 2.039-4.957 0.5-0.153 1.131-0.331 1.722-0.511 0.508-0.161 0.992-0.314 1.523-0.562 0.271-0.135 0.558-0.274 0.935-0.594 0.333-0.296 1.025-0.937 1.063-2.233-0.021-8.538-0.75-16.547-4.532-22.837C52.26 53.87 51.921 53.395 51.577 52.921zM5.314 30.626c0-0.03 0.004-0.057 0.004-0.087l3.807-5.667c0 0 5.705 4.129 17.785 6.83 12.081 2.702 23.455-0.129 23.455-0.129s2.248 4.191 4.361 6.749c-3.266 10.207-12.808 17.595-24.099 17.617C16.647 55.911 5.34 44.604 5.314 30.626zM34.989 60.905c-0.161 0.312-0.343 0.613-0.566 0.87-0.729 0.8-1.626 1.469-3.913 1.507-3.123-0.087-3.948-1.18-4.729-2.442-0.002-0.003-0.002-0.006-0.003-0.01 1.583 0.253 3.195 0.421 4.85 0.421C32.113 61.251 33.561 61.11 34.989 60.905zM50.262 76.039c-0.507 0.158-0.988 0.312-1.515 0.551-0.008 0.005-0.017 0.01-0.024 0.013l-1.8-13.122c0 0 0.265 5.716 0.451 9.423 0.11 2.209-0.09 4.007-0.271 5.111-0.183 0.319-0.344 0.716-0.393 1.268-0.118 1.773-0.552 2.812-1.104 3.53-0.8 1.05-2.271 1.794-4.851 2.209-2.534 0.413-5.915 0.429-9.766 0.426-1.14 0-2.238 0.003-3.283 0.003-4.234 0.025-7.644-0.189-9.473-1.03-1.725-0.888-2.508-1.594-2.81-5.121-0.087-0.644-0.263-1.096-0.465-1.428-0.174-1.116-0.353-2.849-0.248-4.968 0.186-3.707 0.451-9.423 0.451-9.423L13.36 76.612c-1.063-0.496-2.003-0.674-2.968-0.981-0.06-0.019-0.121-0.035-0.179-0.052 0.126-7.486 1.273-13.995 4.081-18.41 0.105-0.163 0.223-0.31 0.332-0.466 1.632 1.003 3.361 1.856 5.179 2.544 0.117 0.942 0.425 2.455 1.287 4.098 1.276 2.587 4.515 5.341 9.418 5.254 0.078 0.001 0.157 0.001 0.235 0.001 4.702 0 7.817-2.752 9.018-5.33 0.737-1.474 1.049-2.853 1.186-3.841 2.282-0.818 4.444-1.88 6.44-3.188 0.211 0.296 0.433 0.581 0.629 0.894 2.699 4.38 3.655 10.918 3.751 18.46C51.312 75.729 50.772 75.886 50.262 76.039zM37.733 44.648c1.708 0 3.091-2.244 3.091-5.01s-1.383-5.007-3.091-5.007-3.09 2.241-3.09 5.007S36.025 44.648 37.733 44.648zM14.688 48.408c0.125 0.085 6.693 5.318 16.586 5.332 9.989-0.024 16.312-6.25 16.432-6.347 0.523-0.515 0.533-1.354 0.02-1.878-0.513-0.524-1.353-0.535-1.876-0.02-0.003 0-0.319 0.31-0.991 0.833-2.023 1.58-6.97 4.764-13.584 4.755-4.462 0-8.217-1.2-10.853-2.402-1.318-0.603-2.355-1.203-3.05-1.648-0.697-0.444-1.026-0.71-1.029-0.707-0.576-0.458-1.413-0.36-1.867 0.215-0.457 0.572-0.359 1.408 0.216 1.867H14.688zM24.091 44.648c1.706 0 3.089-2.244 3.089-5.01s-1.383-5.007-3.089-5.007c-1.708 0-3.091 2.241-3.091 5.007S22.383 44.648 24.091 44.648z" data-fill-palette-color="accent"></path></svg></g></svg></g><g><rect width="88.01701750208288" height="3.1857478682412883" y="73.45731214248266" x="156.41434249791712" fill="#000000" data-fill-palette-color="accent"></rect><rect width="88.01701750208288" height="3.1857478682412883" y="73.45731214248266" x="0" fill="#000000" data-fill-palette-color="accent"></rect><rect width="88.01701750208288" height="3.1857478682412883" y="67.08581640600009" x="156.41434249791712" fill="#000000" data-fill-palette-color="accent"></rect><rect width="88.01701750208288" height="3.1857478682412883" y="67.08581640600009" x="0" fill="#000000" data-fill-palette-color="accent"></rect></g></svg></g></svg></g><g><path d="M104.868 44.178A122.216 122.216 0 0 1 290.652 44.178L287.466 44.178A119.03 119.03 0 0 0 108.054 44.178L104.868 44.178M104.868 203.022A122.216 122.216 0 0 0 290.652 203.022L287.466 203.022A119.03 119.03 0 0 1 108.054 203.022L104.868 203.022" fill="#000000" stroke="transparent" data-fill-palette-color="tertiary"></path></g></svg></g><defs></defs></svg><rect width="395.52" height="247.2" fill="none" stroke="none" visibility="hidden"></rect></g></svg></g></svg>